<svg xmlns="http://www.w3.org/2000/svg" width="71" height="21">
  <g fill="#9FA6B2">
    <path d="M11.811 3.69S8.55 5.855 7.893 8.962c0 0-1.56-3.999 1.267-8.414.002 0 1.537-2.47 2.651 3.142z" />
    <path d="M6.824 4.257s-.776 3.841.953 6.501c0 0-3.927-1.723-5.048-6.847.002 0-.658-2.833 4.095.346z" />
    <path d="M3.697 8.19s2.164 3.264 5.267 3.92c0 0-3.994 1.562-8.406-1.268 0 0-2.467-1.538 3.139-2.653z" />
    <path d="M4.264 13.181s3.838.776 6.495-.954c0 0-1.722 3.93-6.841 5.052.002-.002-2.83.659.346-4.098z" />
    <path d="M8.193 16.31s3.262-2.165 3.918-5.272c0 0 1.56 3.999-1.268 8.414 0 0-1.536 2.47-2.65-3.142z" />
    <path d="M13.18 15.743s.775-3.841-.954-6.501c0 0 3.927 1.723 5.049 6.847-.002 0 .657 2.833-4.095-.346z" />
    <path d="M16.307 11.81s-2.164-3.264-5.268-3.92c0 0 3.995-1.562 8.407 1.268 0 .002 2.467 1.538-3.14 2.653z" />
    <path
      d="M15.74 6.819s-3.836-.776-6.496.954c0 0 1.722-3.93 6.842-5.052 0 .002 2.83-.659-.346 4.098zM29.192 17.14c.551 0 1.046-.08 1.486-.242.44-.161.814-.391 1.125-.69.31-.299.55-.662.716-1.09.167-.428.25-.908.25-1.441 0-.645-.128-1.256-.386-1.833s-.627-1.179-1.108-1.806l-2.645-3.2a7.207 7.207 0 01-.299-.421A2.738 2.738 0 0128.107 6a2.26 2.26 0 01-.14-.47 3.08 3.08 0 01-.049-.571c0-.398.105-.716.316-.954.211-.237.53-.356.958-.356.516 0 .888.213 1.117.638.228.424.342 1.035.342 1.832v.712h1.758c.065-.328.122-.628.172-.9.05-.273.074-.57.074-.893 0-.38-.054-.76-.162-1.138a2.677 2.677 0 00-.558-1.024c-.264-.305-.617-.55-1.06-.738-.442-.188-.994-.282-1.656-.282-.545 0-1.033.084-1.464.25a3 3 0 00-1.085.704c-.293.302-.517.66-.672 1.077a3.893 3.893 0 00-.233 1.37c0 .622.114 1.206.342 1.754.229.548.554 1.092.976 1.63l2.373 2.822c.211.264.384.502.519.716.134.214.241.418.32.611.08.193.135.388.167.585.033.196.049.411.049.646 0 .457-.115.804-.343 1.041-.229.237-.56.356-.993.356-.276 0-.508-.054-.699-.163a1.177 1.177 0 01-.457-.483 2.512 2.512 0 01-.246-.787 6.836 6.836 0 01-.075-1.072v-.73h-1.766c-.077.317-.134.611-.172.884-.038.272-.057.57-.057.892 0 .398.054.788.163 1.169.108.38.296.72.562 1.02.267.298.624.539 1.072.72.449.182 1.013.273 1.692.273zM35.881 17l.395-2.69h2.743l.413 2.69h2.302L38.957 1.988h-2.62L33.57 17h2.312zm2.874-4.403H36.54l1.064-7.48h.096l1.055 7.48zm6.231 4.544c.405 0 .796-.052 1.174-.154a2.36 2.36 0 001.01-.571c.296-.279.532-.664.708-1.156.176-.492.264-1.125.264-1.899V1.988h-2.277l-.026 11.69c0 .34-.02.622-.062.848-.04.225-.1.404-.175.536a.661.661 0 01-.277.277.823.823 0 01-.365.079.809.809 0 01-.418-.101.735.735 0 01-.28-.334 2.172 2.172 0 01-.163-.624 7.459 7.459 0 01-.053-.971l.026-1.828h-1.82a12.085 12.085 0 00-.245 2.258c0 .452.05.88.15 1.284.099.404.264.757.496 1.059a2.4 2.4 0 00.918.716c.381.176.853.264 1.415.264zM51.851 17l.395-2.69h2.742l.413 2.69h2.303L54.927 1.988h-2.62L49.54 17h2.312zm2.874-4.403H52.51l1.063-7.48h.097l1.055 7.48zM61.387 17v-5.616h.852L64.234 17h2.409l-2.409-6.003c.639-.316 1.122-.833 1.45-1.551.329-.718.493-1.648.493-2.79v-.379c0-.68-.073-1.258-.22-1.735-.146-.478-.341-.875-.584-1.191a2.866 2.866 0 00-.835-.747 4.035 4.035 0 00-.976-.41 5.285 5.285 0 00-1.01-.17 13.443 13.443 0 00-.928-.036h-2.47V17h2.233zm.342-7.26h-.342V3.65h.342c.417 0 .762.043 1.038.131.275.088.496.223.663.405.167.181.286.413.356.694.07.281.106.615.106 1.002v1.186c0 .504-.038.928-.115 1.27-.076.343-.199.619-.369.827-.17.208-.392.356-.668.443a3.358 3.358 0 01-1.01.132zM70.642 17V1.988h-2.277V17h2.277z"
    />
  </g>
</svg>
