<svg xmlns="http://www.w3.org/2000/svg" width="18" height="18" viewBox="0 0 18 18" fill="currentColor">
  <path
    fill-rule="evenodd"
    d="M14,0 C16.209139,-4.05812251e-16 18,1.790861 18,4 L18,14 C18,16.209139 16.209139,18 14,18 L4,18 C1.790861,18 2.705415e-16,16.209139 0,14 L0,4 C-2.705415e-16,1.790861 1.790861,4.05812251e-16 4,0 L14,0 Z M10,3 L8,3 L8,11.586 L5,8.586 L3.586,10 L8.293,14.707 C8.68349985,15.0973819 9.31650015,15.0973819 9.707,14.707 L14.414,10 L13,8.586 L10,11.586 L10,3 Z"
  />
</svg>
