<svg xmlns="http://www.w3.org/2000/svg" width="18" height="18" viewBox="0 0 18 18" fill="currentColor">
  <path
    fill-rule="evenodd"
    d="M14,0 C16.209139,-4.05812251e-16 18,1.790861 18,4 L18,14 C18,16.209139 16.209139,18 14,18 L4,18 C1.790861,18 2.705415e-16,16.209139 0,14 L0,4 C-2.705415e-16,1.790861 1.790861,4.05812251e-16 4,0 L14,0 Z M8.293,3.293 L3.586,8 L5,9.414 L8,6.414 L8,15 L10,15 L10,6.414 L13,9.414 L14.414,8 L9.707,3.293 C9.31650015,2.90261806 8.68349985,2.90261806 8.293,3.293 Z"
  />
</svg>
