<svg xmlns="http://www.w3.org/2000/svg" width="71" height="20" viewBox="0 0 71 20">
  <g fill="none">
    <path
      fill="#7BC9CD"
      d="M11.8110517,3.68956289 C11.8110517,3.68956289 8.54901961,5.85548617 7.89304813,8.96164139 C7.89304813,8.96164139 6.33333333,4.96342551 9.16042781,0.547725245 C9.16221034,0.547725245 10.6969697,-1.92149866 11.8110517,3.68956289 Z"
    />
    <path
      fill="#2C96D3"
      d="M6.82352941,4.25691347 C6.82352941,4.25691347 6.04812834,8.09812667 7.7771836,10.7582516 C7.7771836,10.7582516 3.85026738,9.03479037 2.72905526,3.91079393 C2.73083779,3.91079393 2.07130125,1.07760928 6.82352941,4.25691347 Z"
    />
    <path
      fill="#B068A7"
      d="M3.6969697,8.18911686 C3.6969697,8.18911686 5.86096257,11.4540589 8.96434938,12.1106155 C8.96434938,12.1106155 4.96969697,13.6717217 0.557932264,10.8421053 C0.557932264,10.8421053 -1.90909091,9.30419269 3.6969697,8.18911686 Z"
    />
    <path
      fill="#D9418C"
      d="M4.26381462,13.1810883 C4.26381462,13.1810883 8.10160428,13.9571811 10.7593583,12.2265834 C10.7593583,12.2265834 9.03743316,16.1570027 3.91800357,17.279215 C3.9197861,17.2774309 1.08734403,17.9375558 4.26381462,13.1810883 Z"
    />
    <path
      fill="#C20E0F"
      d="M8.19251337,16.3104371 C8.19251337,16.3104371 11.4545455,14.1445138 12.1105169,11.0383586 C12.1105169,11.0383586 13.6702317,15.0365745 10.8431373,19.4522748 C10.8431373,19.4522748 9.30659537,21.9214987 8.19251337,16.3104371 Z"
    />
    <path
      fill="#F18F00"
      d="M13.1800357,15.7430865 C13.1800357,15.7430865 13.9554367,11.9018733 12.2263815,9.24174844 C12.2263815,9.24174844 16.1532977,10.9652096 17.2745098,16.0892061 C17.2727273,16.0892061 17.9322638,18.9223907 13.1800357,15.7430865 Z"
    />
    <path
      fill="#F8D500"
      d="M16.3065954,11.8108831 C16.3065954,11.8108831 14.1426025,8.54594112 11.0392157,7.88938448 C11.0392157,7.88938448 15.0338681,6.32827832 19.4456328,9.15789474 C19.4456328,9.15967886 21.912656,10.6958073 16.3065954,11.8108831 Z"
    />
    <path
      fill="#D2D500"
      d="M15.7397504,6.81891169 C15.7397504,6.81891169 11.9037433,6.04281891 9.24420677,7.77341659 C9.24420677,7.77341659 10.9661319,3.84299732 16.0855615,2.72078501 C16.0855615,2.72256913 18.916221,2.06244425 15.7397504,6.81891169 Z"
    />
    <path
      fill="#000"
      d="M29.1923828,17.140625 C29.7431641,17.140625 30.2382812,17.0600586 30.6777344,16.8989258 C31.1171875,16.737793 31.4921875,16.5078125 31.8027344,16.2089844 C32.1132812,15.9101562 32.3520508,15.546875 32.519043,15.1191406 C32.6860352,14.6914062 32.7695312,14.2109375 32.7695312,13.6777344 C32.7695312,13.0332031 32.640625,12.4223633 32.3828125,11.8452148 C32.125,11.2680664 31.7558594,10.6660156 31.2753906,10.0390625 L31.2753906,10.0390625 L28.6298828,6.83984375 C28.5185547,6.69335938 28.4189453,6.55273438 28.3310547,6.41796875 C28.2431641,6.28320312 28.168457,6.14404297 28.1069336,6.00048828 C28.0454102,5.85693359 27.9985352,5.70019531 27.9663086,5.53027344 C27.934082,5.36035156 27.9179688,5.16992188 27.9179688,4.95898438 C27.9179688,4.56054688 28.0234375,4.24267578 28.234375,4.00537109 C28.4453125,3.76806641 28.7646484,3.64941406 29.1923828,3.64941406 C29.7080078,3.64941406 30.0800781,3.86181641 30.3085938,4.28662109 C30.5371094,4.71142578 30.6513672,5.32226562 30.6513672,6.11914062 L30.6513672,6.11914062 L30.6513672,6.83105469 L32.4091797,6.83105469 C32.4736328,6.50292969 32.5307617,6.20263672 32.5805664,5.93017578 C32.6303711,5.65771484 32.6552734,5.36035156 32.6552734,5.03808594 C32.6552734,4.65722656 32.6010742,4.27783203 32.4926758,3.89990234 C32.3842773,3.52197266 32.1982422,3.18066406 31.9345703,2.87597656 C31.6708984,2.57128906 31.3178711,2.32519531 30.8754883,2.13769531 C30.4331055,1.95019531 29.8808594,1.85644531 29.21875,1.85644531 C28.6738281,1.85644531 28.1860352,1.93994141 27.7553711,2.10693359 C27.324707,2.27392578 26.9628906,2.50830078 26.6699219,2.81005859 C26.3769531,3.11181641 26.152832,3.47070312 25.9975586,3.88671875 C25.8422852,4.30273438 25.7646484,4.75976562 25.7646484,5.2578125 C25.7646484,5.87890625 25.8789062,6.46337891 26.1074219,7.01123047 C26.3359375,7.55908203 26.6611328,8.10253906 27.0830078,8.64160156 L27.0830078,8.64160156 L29.4560547,11.4628906 C29.6669922,11.7265625 29.8398438,11.965332 29.9746094,12.1791992 C30.109375,12.3930664 30.2163086,12.5966797 30.2954102,12.7900391 C30.3745117,12.9833984 30.4301758,13.1782227 30.4624023,13.3745117 C30.4946289,13.5708008 30.5107422,13.7861328 30.5107422,14.0205078 C30.5107422,14.4775391 30.3964844,14.824707 30.1679688,15.0620117 C29.9394531,15.2993164 29.6083984,15.4179688 29.1748047,15.4179688 C28.8994141,15.4179688 28.6665039,15.3637695 28.4760742,15.2553711 C28.2856445,15.1469727 28.1333008,14.9858398 28.019043,14.7719727 C27.9047852,14.5581055 27.8227539,14.2958984 27.7729492,13.9853516 C27.7231445,13.6748047 27.6982422,13.3173828 27.6982422,12.9130859 L27.6982422,12.9130859 L27.6982422,12.1835938 L25.9316406,12.1835938 C25.8554688,12.5 25.7983398,12.7944336 25.7602539,13.0668945 C25.722168,13.3393555 25.703125,13.6367188 25.703125,13.9589844 C25.703125,14.3574219 25.7573242,14.7470703 25.8657227,15.1279297 C25.9741211,15.5087891 26.1616211,15.8486328 26.4282227,16.1474609 C26.6948242,16.4462891 27.0522461,16.6865234 27.5004883,16.8681641 C27.9487305,17.0498047 28.5126953,17.140625 29.1923828,17.140625 Z M35.8808594,17 L36.2763672,14.3105469 L39.0185547,14.3105469 L39.4316406,17 L41.734375,17 L38.9570312,1.98828125 L36.3378906,1.98828125 L33.5693359,17 L35.8808594,17 Z M38.7548828,12.5966797 L36.5400391,12.5966797 L37.6035156,5.1171875 L37.7001953,5.1171875 L38.7548828,12.5966797 Z M44.9863281,17.140625 C45.390625,17.140625 45.7817383,17.0893555 46.159668,16.9868164 C46.5375977,16.8842773 46.8745117,16.6938477 47.1704102,16.4155273 C47.4663086,16.137207 47.7021484,15.7519531 47.8779297,15.2597656 C48.0537109,14.7675781 48.1416016,14.1347656 48.1416016,13.3613281 L48.1416016,13.3613281 L48.1416016,1.98828125 L45.8652344,1.98828125 L45.8388672,13.6777344 C45.8388672,14.0175781 45.8183594,14.300293 45.7773438,14.5258789 C45.7363281,14.7514648 45.6777344,14.9301758 45.6015625,15.0620117 C45.5253906,15.1938477 45.4331055,15.2861328 45.324707,15.3388672 C45.2163086,15.3916016 45.0947266,15.4179688 44.9599609,15.4179688 C44.7958984,15.4179688 44.6567383,15.3842773 44.5424805,15.3168945 C44.4282227,15.2495117 44.3344727,15.1381836 44.2612305,14.9829102 C44.1879883,14.8276367 44.1337891,14.6196289 44.0986328,14.3588867 C44.0634766,14.0981445 44.0458984,13.7744141 44.0458984,13.3876953 L44.0458984,13.3876953 L44.0722656,11.5595703 L42.2529297,11.5595703 C42.1708984,11.9580078 42.109375,12.3549805 42.0683594,12.7504883 C42.0273438,13.1459961 42.0068359,13.5019531 42.0068359,13.8183594 C42.0068359,14.2695312 42.0566406,14.6972656 42.15625,15.1015625 C42.2558594,15.5058594 42.4213867,15.8588867 42.652832,16.1606445 C42.8842773,16.4624023 43.1904297,16.7011719 43.5712891,16.8769531 C43.9521484,17.0527344 44.4238281,17.140625 44.9863281,17.140625 Z M51.8505859,17 L52.2460938,14.3105469 L54.9882812,14.3105469 L55.4013672,17 L57.7041016,17 L54.9267578,1.98828125 L52.3076172,1.98828125 L49.5390625,17 L51.8505859,17 Z M54.7246094,12.5966797 L52.5097656,12.5966797 L53.5732422,5.1171875 L53.6699219,5.1171875 L54.7246094,12.5966797 Z M61.3867188,17 L61.3867188,11.3837891 L62.2392578,11.3837891 L64.234375,17 L66.6425781,17 L64.234375,10.9970703 C64.8730469,10.6806641 65.3564453,10.1635742 65.6845703,9.44580078 C66.0126953,8.72802734 66.1767578,7.79785156 66.1767578,6.65527344 L66.1767578,6.65527344 L66.1767578,6.27734375 C66.1767578,5.59765625 66.1035156,5.01904297 65.9570312,4.54150391 C65.8105469,4.06396484 65.6157227,3.66699219 65.3725586,3.35058594 C65.1293945,3.03417969 64.8510742,2.78515625 64.5375977,2.60351562 C64.2241211,2.421875 63.8989258,2.28564453 63.5620117,2.19482422 C63.2250977,2.10400391 62.8881836,2.046875 62.5512695,2.0234375 C62.2143555,2 61.9052734,1.98828125 61.6240234,1.98828125 L61.6240234,1.98828125 L59.1542969,1.98828125 L59.1542969,17 L61.3867188,17 Z M61.7294922,9.74023438 L61.3867188,9.74023438 L61.3867188,3.64941406 L61.7294922,3.64941406 C62.1455078,3.64941406 62.4912109,3.69335938 62.7666016,3.78125 C63.0419922,3.86914062 63.2631836,4.00390625 63.4301758,4.18554688 C63.597168,4.3671875 63.7158203,4.59863281 63.7861328,4.87988281 C63.8564453,5.16113281 63.8916016,5.49511719 63.8916016,5.88183594 L63.8916016,5.88183594 L63.8916016,7.06835938 C63.8916016,7.57226562 63.8535156,7.99560547 63.7773438,8.33837891 C63.7011719,8.68115234 63.578125,8.95654297 63.4082031,9.16455078 C63.2382812,9.37255859 63.015625,9.52050781 62.7402344,9.60839844 C62.4648438,9.69628906 62.1279297,9.74023438 61.7294922,9.74023438 L61.7294922,9.74023438 Z M70.6416016,17 L70.6416016,1.98828125 L68.3652344,1.98828125 L68.3652344,17 L70.6416016,17 Z"
    />
  </g>
</svg>
