<svg xmlns="http://www.w3.org/2000/svg" width="85px" height="24px" viewBox="0 0 86 24">
  <g fill="none">
    <path 
      fill="#ff3e00" 
      d="M 12.738281 20.058594 C 12.34375 20.453125 12.34375 21.089844 12.738281 21.484375 C 13.128906 21.878906 13.765625 21.878906 14.160156 21.484375 C 14.554688 21.089844 14.554688 20.453125 14.160156 20.058594 C 13.765625 19.664062 13.128906 19.664062 12.738281 20.058594 Z M 15.335938 17.445312 C 14.945312 17.839844 14.945312 18.480469 15.335938 18.875 C 15.730469 19.269531 16.367188 19.269531 16.757812 18.875 C 17.152344 18.480469 17.152344 17.839844 16.757812 17.445312 C 16.367188 17.054688 15.730469 17.054688 15.335938 17.445312 Z M 21.808594 10.953125 L 17.890625 14.882812 C 17.683594 15.09375 17.578125 15.378906 17.597656 15.671875 C 17.617188 15.964844 17.765625 16.234375 18 16.410156 C 18.410156 16.71875 19.003906 16.625 19.367188 16.257812 L 20.511719 15.109375 C 21.597656 14.019531 22.082031 12.464844 21.804688 10.953125 Z M 21.808594 10.953125 "
    />
    <path 
      fill="#ff5200"
      d="M 8.863281 18.84375 C 8.46875 19.238281 8.46875 19.875 8.863281 20.269531 C 9.253906 20.664062 9.894531 20.664062 10.285156 20.269531 C 10.679688 19.875 10.679688 19.238281 10.285156 18.84375 C 9.894531 18.449219 9.257812 18.449219 8.863281 18.84375 Z M 11.464844 16.230469 C 11.070312 16.625 11.070312 17.265625 11.460938 17.660156 C 11.855469 18.054688 12.492188 18.054688 12.886719 17.660156 C 13.277344 17.265625 13.277344 16.625 12.886719 16.230469 C 12.492188 15.835938 11.855469 15.835938 11.464844 16.230469 Z M 20.511719 8.460938 C 20.273438 8.222656 20.007812 8.011719 19.722656 7.828125 L 14.019531 13.554688 C 13.59375 13.980469 13.59375 14.667969 14.019531 15.09375 C 14.441406 15.515625 15.125 15.515625 15.546875 15.09375 L 21.226562 9.394531 C 21.027344 9.054688 20.789062 8.742188 20.511719 8.464844 Z M 20.511719 8.460938 "
    />
    <path 
      fill="#ff6500"
      d="M 13.894531 8.464844 L 5.589844 16.800781 C 7.144531 17.140625 8.765625 16.664062 9.890625 15.535156 L 18.195312 7.199219 C 16.640625 6.859375 15.019531 7.335938 13.894531 8.464844 Z M 13.894531 8.464844 "
    />
    <path 
      fill="#ff7900" 
      d="M 10.902344 6.339844 C 10.507812 6.734375 10.507812 7.375 10.898438 7.769531 C 11.292969 8.164062 11.929688 8.164062 12.324219 7.769531 C 12.714844 7.375 12.714844 6.734375 12.324219 6.339844 C 11.929688 5.945312 11.292969 5.945312 10.902344 6.339844 Z M 14.921875 3.734375 C 14.53125 3.339844 13.894531 3.339844 13.5 3.734375 C 13.105469 4.128906 13.105469 4.769531 13.5 5.164062 C 13.894531 5.558594 14.53125 5.558594 14.921875 5.164062 C 15.316406 4.769531 15.316406 4.128906 14.921875 3.734375 Z M 8.234375 8.90625 L 2.558594 14.605469 C 2.757812 14.941406 2.996094 15.253906 3.269531 15.535156 C 3.511719 15.773438 3.777344 15.984375 4.0625 16.167969 L 9.765625 10.441406 C 10.164062 10.011719 10.152344 9.34375 9.738281 8.929688 C 9.328125 8.515625 8.660156 8.503906 8.234375 8.90625 Z M 8.234375 8.90625 "
    />
    <path 
      fill="#ff8c00" 
      d="M 7.03125 5.125 C 6.636719 5.519531 6.636719 6.15625 7.03125 6.550781 C 7.421875 6.945312 8.058594 6.945312 8.453125 6.550781 C 8.84375 6.15625 8.84375 5.519531 8.453125 5.125 C 8.058594 4.730469 7.421875 4.730469 7.03125 5.125 Z M 11.050781 2.515625 C 10.660156 2.121094 10.023438 2.121094 9.628906 2.515625 C 9.238281 2.910156 9.238281 3.550781 9.628906 3.945312 C 10.023438 4.339844 10.660156 4.335938 11.050781 3.941406 C 11.445312 3.546875 11.441406 2.910156 11.046875 2.515625 Z M 4.472656 7.6875 L 3.269531 8.894531 C 2.1875 9.984375 1.707031 11.535156 1.980469 13.050781 L 5.898438 9.117188 C 6.292969 8.722656 6.292969 8.082031 5.898438 7.6875 C 5.507812 7.292969 4.867188 7.292969 4.472656 7.6875 Z M 4.472656 7.6875 "
    />
    <path 
      fill="#17202d" 
      d="M 27.316406 15.171875 L 28 13.695312 C 28.628906 14.101562 29.589844 14.378906 30.457031 14.378906 C 31.402344 14.378906 31.753906 14.128906 31.753906 13.734375 C 31.753906 12.574219 27.488281 13.761719 27.488281 10.925781 C 27.488281 9.582031 28.695312 8.632812 30.753906 8.632812 C 31.726562 8.632812 32.804688 8.855469 33.472656 9.25 L 32.789062 10.71875 C 32.167969 10.367188 31.46875 10.183594 30.753906 10.191406 C 29.835938 10.191406 29.441406 10.480469 29.441406 10.851562 C 29.441406 12.0625 33.710938 10.890625 33.710938 13.683594 C 33.710938 15.003906 32.488281 15.9375 30.371094 15.9375 C 29.183594 15.933594 27.972656 15.605469 27.316406 15.171875 Z M 27.316406 15.171875 "
    />
    <path 
      fill="#17202d" 
      d="M 41.859375 12.863281 L 36.515625 12.863281 C 36.710938 13.746094 37.460938 14.285156 38.535156 14.285156 C 39.285156 14.285156 39.824219 14.0625 40.308594 13.601562 L 41.402344 14.785156 C 40.746094 15.535156 39.757812 15.933594 38.484375 15.933594 C 36.042969 15.933594 34.453125 14.390625 34.453125 12.28125 C 34.453125 10.15625 36.070312 8.628906 38.222656 8.628906 C 40.296875 8.628906 41.898438 10.027344 41.898438 12.308594 C 41.898438 12.46875 41.871094 12.691406 41.859375 12.863281 Z M 36.488281 11.664062 L 39.96875 11.664062 C 39.824219 10.765625 39.15625 10.1875 38.234375 10.1875 C 37.316406 10.1875 36.632812 10.753906 36.488281 11.664062 Z M 36.488281 11.664062 "
    />
    <path 
      fill="#17202d"  
      d="M 49.324219 11.78125 L 49.324219 15.828125 L 47.40625 15.828125 L 47.40625 14.945312 C 47.023438 15.59375 46.289062 15.933594 45.253906 15.933594 C 43.601562 15.933594 42.617188 15.011719 42.617188 13.785156 C 42.617188 12.535156 43.496094 11.664062 45.648438 11.664062 L 47.277344 11.664062 C 47.277344 10.78125 46.753906 10.265625 45.648438 10.265625 C 44.902344 10.265625 44.125 10.515625 43.613281 10.925781 L 42.878906 9.488281 C 43.652344 8.933594 44.796875 8.632812 45.925781 8.632812 C 48.074219 8.632812 49.324219 9.632812 49.324219 11.78125 Z M 47.277344 13.589844 L 47.277344 12.863281 L 45.867188 12.863281 C 44.910156 12.863281 44.609375 13.21875 44.609375 13.695312 C 44.609375 14.210938 45.039062 14.550781 45.765625 14.550781 C 46.449219 14.550781 47.039062 14.234375 47.277344 13.589844 Z M 47.277344 13.589844 "
    />
    <path 
      fill="#17202d"  
      d="M 54.777344 8.632812 L 54.777344 10.53125 C 54.605469 10.515625 54.476562 10.503906 54.316406 10.503906 C 53.1875 10.503906 52.4375 11.125 52.4375 12.480469 L 52.4375 15.828125 L 50.390625 15.828125 L 50.390625 8.734375 L 52.347656 8.734375 L 52.347656 9.671875 C 52.847656 8.988281 53.6875 8.632812 54.777344 8.632812 Z M 54.777344 8.632812 "
    />
    <path 
      fill="#17202d"  
      d="M 55.148438 12.28125 C 55.148438 10.144531 56.789062 8.628906 59.089844 8.628906 C 60.574219 8.628906 61.742188 9.273438 62.253906 10.433594 L 60.664062 11.292969 C 60.285156 10.621094 59.71875 10.316406 59.074219 10.316406 C 58.039062 10.316406 57.222656 11.042969 57.222656 12.28125 C 57.222656 13.523438 58.039062 14.246094 59.074219 14.246094 C 59.71875 14.246094 60.285156 13.957031 60.664062 13.269531 L 62.253906 14.140625 C 61.738281 15.273438 60.574219 15.933594 59.089844 15.933594 C 56.789062 15.933594 55.148438 14.417969 55.148438 12.28125 Z M 55.148438 12.28125 "
    />
    <path 
      fill="#17202d"  
      d="M 70.347656 11.769531 L 70.347656 15.828125 L 68.296875 15.828125 L 68.296875 12.085938 C 68.296875 10.9375 67.773438 10.410156 66.867188 10.410156 C 65.882812 10.410156 65.171875 11.015625 65.171875 12.324219 L 65.171875 15.828125 L 63.125 15.828125 L 63.125 6.046875 L 65.171875 6.046875 L 65.171875 9.472656 C 65.726562 8.921875 66.511719 8.632812 67.417969 8.632812 C 69.085938 8.632812 70.347656 9.605469 70.347656 11.769531 Z M 70.347656 11.769531 "
    />
    <path 
      fill="#17202d"  
      d="M 71.863281 15.71875 C 71.730469 15.582031 71.65625 15.394531 71.660156 15.203125 C 71.65625 15.011719 71.730469 14.828125 71.863281 14.691406 C 71.996094 14.558594 72.171875 14.484375 72.359375 14.484375 C 72.546875 14.484375 72.726562 14.558594 72.859375 14.691406 C 73 14.824219 73.078125 15.011719 73.074219 15.203125 C 73.078125 15.398438 73 15.585938 72.859375 15.71875 C 72.730469 15.855469 72.546875 15.933594 72.359375 15.933594 C 72.171875 15.933594 71.992188 15.859375 71.863281 15.71875 Z M 71.863281 15.71875 "
    />
    <path 
      fill="#17202d"  
      d="M 74.496094 7.167969 C 74.367188 7.042969 74.292969 6.871094 74.296875 6.691406 C 74.296875 6.515625 74.367188 6.347656 74.496094 6.226562 C 74.621094 6.097656 74.800781 6.023438 74.984375 6.027344 C 75.164062 6.023438 75.339844 6.09375 75.472656 6.222656 C 75.597656 6.339844 75.671875 6.503906 75.667969 6.679688 C 75.671875 6.957031 75.503906 7.210938 75.246094 7.316406 C 74.988281 7.425781 74.691406 7.367188 74.496094 7.167969 Z M 74.507812 8.894531 L 75.445312 8.894531 L 75.445312 15.867188 L 74.507812 15.867188 L 74.507812 8.890625 Z M 74.507812 8.894531 "
    />
    <path 
      fill="#17202d"  
      d="M 78.753906 15.476562 C 78.222656 15.179688 77.785156 14.738281 77.488281 14.207031 C 76.871094 13.066406 76.871094 11.691406 77.488281 10.550781 C 77.785156 10.019531 78.222656 9.582031 78.753906 9.289062 C 79.886719 8.6875 81.242188 8.6875 82.371094 9.289062 C 82.902344 9.582031 83.339844 10.019531 83.636719 10.550781 C 84.242188 11.691406 84.242188 13.0625 83.636719 14.207031 C 83.339844 14.738281 82.90625 15.179688 82.375 15.476562 C 81.246094 16.085938 79.886719 16.085938 78.753906 15.476562 Z M 81.890625 14.757812 C 82.28125 14.535156 82.601562 14.199219 82.808594 13.796875 C 83.25 12.902344 83.25 11.855469 82.808594 10.960938 C 82.601562 10.558594 82.28125 10.226562 81.890625 10 C 81.0625 9.550781 80.066406 9.550781 79.238281 10 C 78.84375 10.226562 78.523438 10.558594 78.3125 10.960938 C 77.863281 11.851562 77.863281 12.90625 78.3125 13.796875 C 78.523438 14.199219 78.84375 14.535156 79.238281 14.757812 C 80.066406 15.210938 81.066406 15.210938 81.894531 14.757812 Z M 81.890625 14.757812 "
    />
  </g>
</svg>
